<svg class="h-6 w-6" xmlns="http://www.w3.org/2000/svg" width="24" height="25" viewBox="0 0 24 25" fill="none"><g clip-path="url(#clip0_817_62445)"><rect y="0.5" width="24" height="24" rx="4" fill="#FE4937"></rect><path d="M8.26917 9.39621C8.32039 9.09933 8.19573 9.22967 8.05754 9.1614C7.5618 8.91727 6.58965 8.62453 6.20214 8.35041C6.11034 8.28524 6.04366 8.25938 6.05719 8.12077C6.07265 7.95112 7.02064 6.55258 7.1714 6.52155L9.81534 7.63666L7.9812 5.62057L9.59211 4.44443L11.748 6.60327L10.7846 3.91687L12.6516 3.51138L13.9707 6.60327V3.5L16 3.96549V13.1201H14.5022C14.0441 13.1201 13.9871 12.1788 13.8218 11.883C13.243 10.8465 11.8099 11.4971 12.0437 12.6484L15.9034 21.1886L13.9842 21.4845L12.3762 17.9819L12.5202 21.5L10.6822 21.0169C10.5391 19.9608 10.5681 18.885 10.4966 17.8226C10.485 17.6457 10.5063 17.4802 10.3459 17.3633L9.42783 20.3632C9.3283 20.4604 7.57823 19.3618 7.80146 18.8902L8.75138 15.9151L6.8554 17.9768C6.61961 18.0212 5.69481 16.3517 5.80014 16.1251C6.37899 15.4703 7.05543 14.7928 7.59273 14.1049C7.68356 13.9891 7.82755 13.9373 7.78503 13.7429L5.27444 14.8807L5 12.8729L7.59273 11.4671H5.08021L5.46675 9.39828H8.26917V9.39621Z" fill="white"></path></g><defs><clipPath id="clip0_817_62445"><rect width="24" height="24" fill="white" transform="translate(0 0.5)"></rect></clipPath></defs></svg>